PathFileType	4	(X/Y/Z)	D:\TRACE\v60_Jaco2_6-2-23\BothDRS_Motion1_5-v60.trc
DataRate	CameraRate	NumFrames	NumMarkers	Units	OrigDataRate	OrigDataStartFrame	OrigNumFrames
100.00	100.00	      31	9	mm	100.00	5148	      6863
Frame#	Time	front left toe			Front right toe			aft left toe			aft right toe			Arm			FL body			FR body			AL Body			AR Body			
		X1	Y1	Z1	X2	Y2	Z2	X3	Y3	Z3	X4	Y4	Z4	X5	Y5	Z5	X6	Y6	Z6	X7	Y7	Z7	X8	Y8	Z8	X9	Y9	Z9	

5148	51.470	-180.30035	5.07443	-297.11487	201.71274	133.69627	-352.47028	-95.02686	147.20148	316.93286	284.29532	25.51952	268.96564	68.36117	1079.02454	-632.52679	-92.24281	564.03937	-450.21124	66.79814	564.20105	-472.20465	34.65846	576.49194	487.08432	188.86020	570.38232	466.37839	
5149	51.480	-180.88858	4.70142	-297.06479	199.01311	128.66513	-351.43921	-99.73211	143.46404	318.21329	284.17920	25.67098	269.09229	67.72579	1078.70520	-632.45697	-92.90745	563.93994	-450.08673	65.67001	563.76996	-471.64722	33.01519	576.63824	487.30106	186.90202	570.40808	466.73395	
5150	51.490	-181.36285	4.42232	-296.99356	196.01688	122.50720	-350.49866	-104.97288	138.70909	318.98087	284.06473	25.83418	269.31888	67.32454	1078.63660	-632.25134	-93.60370	563.58698	-449.74103	65.00740	563.08868	-470.76071	31.53277	576.68323	487.70444	187.05951	570.52795	467.80518	
5151	51.500	-181.90701	4.28387	-296.99588	193.55965	115.82730	-349.12976	-110.03605	133.02705	319.86786	283.45947	25.82061	269.53076	67.29034	1078.32727	-631.80542	-94.27139	563.37177	-449.64893	64.39187	562.70471	-470.75558	30.33253	576.67761	488.00198	185.29153	570.15155	468.27997	
5152	51.510	-182.33691	4.29617	-297.11884	191.60954	108.13684	-347.85748	-115.62966	126.16071	320.43433	282.98251	25.85866	269.52448	67.69167	1077.93042	-631.43768	-95.10751	563.48114	-449.43033	64.42015	562.62225	-470.86981	28.60698	576.51776	488.85754	183.30603	569.74701	467.94000	
5153	51.520	-182.54538	4.29313	-297.17166	190.03923	98.47644	-346.46936	-121.70554	118.01351	320.72876	282.33701	25.88435	269.58734	68.47987	1077.46497	-631.06390	-95.63445	563.39703	-449.10263	63.72825	562.38214	-470.31787	26.92152	576.51318	488.66406	182.19060	569.64471	469.81512	
5154	51.530	-183.16835	4.38230	-297.17004	188.68007	87.51997	-344.57953	-127.78179	109.07373	320.64767	281.93396	25.98088	269.71136	69.60053	1076.93103	-630.85614	-96.04859	563.15240	-448.75775	63.31877	562.16785	-469.69562	24.92305	576.60333	489.22202	179.31389	569.27020	469.69061	
5155	51.540	-183.47902	4.18159	-297.28897	186.94989	75.75874	-342.34482	-133.88167	99.59883	320.58221	281.59302	26.11355	269.58606	70.60641	1076.45142	-630.38715	-96.26546	562.88025	-448.30905	63.06178	561.80969	-469.01819	22.82722	576.51685	489.88492	177.25600	569.00336	470.12375	
5156	51.550	-183.86142	3.84164	-297.14624	185.87775	64.50905	-339.07455	-140.86250	91.96646	319.32870	281.46344	26.36951	269.82074	71.61481	1075.88647	-629.81714	-96.59084	562.83875	-448.13284	63.36685	561.61859	-468.65979	20.59307	576.43292	490.30496	175.18140	568.82678	471.45422	
5157	51.560	-183.97763	3.86123	-297.27814	184.73837	54.40372	-336.04443	-146.87138	83.68947	318.56390	281.16025	26.55967	269.86969	73.14751	1075.40527	-629.11823	-96.75406	562.72229	-447.83716	61.89766	560.73553	-467.52786	18.13773	576.72467	490.82108	172.73740	568.54791	472.44507	
5158	51.570	-184.30782	3.79865	-297.39471	183.85246	44.25476	-332.97406	-152.29341	75.71222	318.74741	280.73715	26.62078	269.83823	74.30120	1075.16602	-628.61047	-97.04813	562.87152	-447.47937	61.83842	560.31976	-466.74579	15.92911	576.61548	491.92722	170.28314	568.01862	472.73126	
5159	51.580	-184.52145	3.79185	-297.60275	183.48656	34.55873	-330.29251	-156.86385	67.37698	319.47021	279.91040	26.75780	270.09793	75.86076	1074.63818	-628.25580	-97.11137	562.65411	-447.21951	62.62844	560.06903	-466.34515	13.06548	576.64661	492.14212	167.80777	568.07489	474.24362	
5160	51.590	-184.57797	3.68717	-297.74295	182.89352	25.56930	-327.83780	-160.20602	59.16064	320.58603	279.70496	26.93192	270.45261	77.29036	1073.91907	-627.72003	-97.09116	562.62097	-446.91461	63.21485	559.75226	-465.67316	10.48386	576.80042	492.87766	165.09760	567.49286	474.87534	
5161	51.600	-184.61752	3.51449	-297.96356	182.88503	17.72545	-325.49188	-163.24080	51.50283	322.21619	279.29727	27.15059	270.70636	79.27285	1073.14624	-627.20203	-97.05572	562.47455	-446.49667	61.81633	558.90851	-464.25873	7.80336	576.88367	493.46445	161.72313	567.56866	475.90195	
5162	51.610	-184.61424	3.48153	-298.04547	182.23134	10.51396	-323.32053	-165.34024	44.66837	323.87317	279.06204	27.36965	270.77362	81.11326	1072.28003	-626.39771	-97.64583	562.36597	-446.15643	61.97426	558.60309	-463.70248	5.12462	577.09821	494.23633	158.91728	567.55310	477.59781	
5163	51.620	-184.89853	3.63993	-298.18317	181.57973	7.00150	-323.31949	-165.77657	37.77078	325.63937	278.83881	27.59725	270.94409	82.92233	1071.63403	-626.00787	-97.38996	562.34924	-445.52228	62.50856	558.27069	-462.71375	2.72415	577.20581	495.14636	157.20497	567.49744	478.90726	
5164	51.630	-185.14398	3.53853	-298.23044	182.25386	4.07052	-322.95172	-167.91409	31.79482	326.67059	278.46381	27.78373	270.99316	84.48273	1071.14905	-624.95093	-97.49665	562.34155	-444.94324	61.39235	557.99921	-460.94971	0.45517	577.11328	496.35046	154.71387	567.02234	479.25467	
5165	51.640	-184.64008	3.43647	-298.27829	182.89590	4.07288	-323.73630	-168.72639	28.75812	325.79736	278.30814	28.06737	271.34668	85.75331	1070.88977	-623.73792	-97.58152	562.62683	-444.22260	61.44551	558.64844	-460.32803	-1.87267	577.31787	497.33536	152.00763	566.71832	480.57172	
5166	51.650	-184.36977	3.51253	-298.38834	182.78592	4.91450	-324.25687	-169.83374	27.42590	324.70718	277.95752	28.45114	271.46979	86.11783	1071.42517	-622.39587	-97.48161	563.27130	-443.17810	61.95562	559.11981	-459.61462	-4.46594	577.64362	497.47296	150.05338	567.48749	482.50226	
5167	51.660	-184.50758	4.08550	-298.53574	182.06256	5.73360	-322.97803	-169.13655	26.11413	325.90738	277.74997	29.16869	272.05643	86.14884	1072.60938	-620.70203	-97.90820	563.98718	-442.35727	61.32176	559.07104	-458.10043	-5.90381	579.15253	498.53500	147.32397	568.56543	483.46527	
5168	51.670	-185.38249	7.38720	-297.45047	181.38770	4.34459	-321.09595	-169.38281	26.03698	327.16043	275.28772	31.73673	272.40033	85.89679	1074.05042	-619.88885	-99.02639	564.38434	-441.93808	60.42619	559.38379	-457.32880	-7.36378	580.36066	499.59128	147.08974	568.68988	483.70062	
5169	51.680	-183.35736	11.04469	-294.03162	181.51836	4.87499	-322.67957	-170.46193	24.49673	326.01828	270.56696	34.48067	276.46826	85.61612	1074.80859	-618.93933	-99.53101	564.82758	-441.57486	60.69767	560.44775	-456.87875	-8.62277	580.09656	500.06857	145.72771	569.25598	485.45422	
5170	51.690	-180.54288	15.72507	-289.36646	181.76965	4.48120	-322.21359	-170.66585	25.10056	325.66476	265.17712	37.89898	282.24545	85.05796	1075.04382	-618.15808	-99.77691	565.20575	-441.03516	59.91346	560.85046	-456.11655	-10.25714	579.83136	500.39371	143.85628	569.19141	485.81839	
5171	51.700	-179.12714	26.41277	-288.65433	181.62927	3.83406	-322.69604	-170.69179	25.05257	325.85193	259.56369	47.26859	283.02264	84.70816	1075.06689	-617.67676	-99.70281	565.37677	-440.60089	59.86977	560.85541	-455.62158	-10.75583	579.80206	500.61328	143.62292	568.78778	486.77103	
5172	51.710	-178.02872	36.15813	-288.48859	181.91023	3.75107	-322.35562	-170.72787	25.15396	325.76599	256.76978	56.95572	284.05435	84.32657	1074.92981	-617.42365	-99.83696	565.08167	-440.29800	60.04134	560.69489	-455.44690	-11.81690	579.73694	501.29065	142.86285	568.62823	487.24463	
5173	51.720	-179.07356	48.84278	-289.22198	182.00063	3.83358	-322.21188	-171.06010	25.14892	325.80991	256.29837	70.36679	283.00671	83.73219	1074.57544	-617.38928	-99.78930	564.63416	-439.93430	60.09366	560.38922	-454.97348	-12.98002	579.46893	501.91089	141.65688	568.68341	487.93192	
5174	51.730	-180.32990	60.63514	-290.37579	181.98538	3.74200	-322.26285	-171.07959	24.69723	325.89972	256.97418	82.86125	283.66415	83.06342	1073.67578	-616.93091	-99.43954	563.97394	-439.47650	60.20237	559.82037	-454.35709	-14.01587	579.21729	502.26547	140.71596	568.43616	488.34433	
5175	51.740	-181.46941	72.53349	-290.35983	182.22992	3.75828	-322.16321	-171.08133	24.57071	325.94034	257.51984	95.83183	285.06445	83.17186	1072.70325	-616.52625	-99.36502	563.05310	-438.86856	60.01630	559.13873	-453.76297	-14.78676	578.89825	502.36749	138.17494	568.22119	488.60855	
5176	51.750	-181.98409	84.04720	-290.43042	182.51396	3.37772	-322.24905	-170.97943	24.47716	325.97104	257.74203	108.87318	286.62473	83.47553	1072.04871	-616.38867	-99.42239	562.54773	-438.85971	59.42704	558.59033	-453.48669	-15.66435	578.77216	502.76788	138.65405	568.09930	489.08801	
5177	51.760	-182.71088	95.21786	-290.00589	182.98056	3.34952	-322.17007	-170.59988	24.64421	325.97546	257.24466	120.71288	288.75848	83.68641	1071.57788	-616.79541	-100.40368	561.96448	-438.80536	59.86540	557.88159	-453.16296	-16.37448	578.68347	503.10199	138.44722	568.41760	489.66217	
5178	51.770	-183.20018	105.21614	-289.51807	183.10945	3.36177	-321.99170	-170.25798	24.79118	325.90109	254.41869	130.70346	290.44168	83.28887	1071.11182	-617.51929	-100.01292	561.39587	-438.43625	59.49623	557.26971	-452.43405	-16.57090	579.04651	503.23254	138.43793	568.87592	489.97653	
